<?xml version="1.0" standalone="no"?>
<!DOCTYPE svg PUBLIC "-//W3C//DTD SVG 20010904//EN"
 "http://www.w3.org/TR/2001/REC-SVG-20010904/DTD/svg10.dtd">
<svg version="1.0" xmlns="http://www.w3.org/2000/svg"
 width="225.000000pt" height="225.000000pt" viewBox="0 0 225.000000 225.000000"
 preserveAspectRatio="xMidYMid meet">

<g transform="translate(0.000000,225.000000) scale(0.100000,-0.100000)"
fill="#000000" stroke="none">
<path d="M280 1386 c-128 -36 -218 -104 -245 -187 -21 -64 -14 -117 25 -185
102 -180 481 -218 677 -68 45 34 83 102 90 163 14 123 -79 226 -246 273 -77
21 -231 23 -301 4z m278 -11 c34 -8 86 -27 115 -42 l52 -26 -30 -13 c-43 -19
-97 -17 -162 6 -67 23 -117 25 -155 6 -32 -17 -84 -29 -119 -28 -41 1 -109 22
-109 33 0 13 80 49 145 65 69 17 188 17 263 -1z m-33 -86 c59 -21 122 -22 197
-4 24 6 30 2 58 -41 16 -26 30 -53 30 -60 0 -6 -38 -24 -85 -38 l-86 -27 -82
71 c-93 79 -119 86 -173 45 -31 -24 -84 -34 -84 -17 0 13 52 59 85 76 40 21
69 20 140 -5z m-320 -16 c28 -7 65 -11 84 -8 l33 6 -21 -30 -22 -30 21 -11
c25 -13 54 -5 96 26 17 13 40 24 51 24 30 0 193 -141 190 -164 -3 -31 -22 -29
-64 6 -38 32 -38 32 -10 2 52 -57 21 -100 -35 -48 l-31 29 22 -32 c35 -51 9
-72 -38 -30 -22 19 -23 19 -8 1 23 -28 22 -34 -8 -34 -20 0 -25 5 -25 25 0 15
-9 31 -25 41 -14 9 -25 22 -25 30 0 7 -12 17 -27 20 -16 4 -33 11 -39 15 -6 5
-22 9 -35 8 -43 0 -93 9 -169 32 -41 13 -76 24 -78 25 -1 1 2 14 8 30 16 42
71 96 90 88 8 -4 38 -13 65 -21z m-74 -137 c31 -9 62 -23 69 -31 7 -8 9 -15 6
-15 -4 0 -2 -9 4 -20 6 -11 17 -20 25 -20 8 0 18 -6 22 -12 9 -15 69 -48 86
-48 6 0 18 -6 26 -14 21 -19 160 -4 177 19 6 8 18 15 27 15 9 0 20 7 25 16 5
8 19 21 32 27 13 7 27 23 30 37 5 19 17 28 60 42 30 9 66 17 79 17 24 1 25
-11 2 -72 -26 -67 -121 -135 -232 -163 -86 -22 -251 -15 -332 14 -114 41 -197
128 -197 206 0 21 4 26 18 22 9 -2 42 -11 73 -20z m189 -41 c8 -5 24 -9 35
-10 12 0 21 -8 23 -20 2 -11 13 -25 25 -30 30 -14 29 -49 -2 -53 -14 -2 -28 3
-33 12 -5 8 -14 13 -22 10 -7 -3 -19 2 -26 11 -7 8 -21 15 -31 15 -10 0 -20 8
-24 19 -3 10 -13 18 -23 17 -10 0 -18 7 -20 21 -3 20 0 22 40 20 24 -2 50 -7
58 -12z"/>
<path d="M2002 1378 c-7 -7 -12 -21 -12 -33 0 -18 -5 -20 -39 -17 -32 3 -42
-1 -60 -23 -27 -35 -27 -85 0 -119 16 -21 29 -26 64 -26 35 0 48 5 64 26 18
23 21 41 21 115 0 90 -8 107 -38 77z m-24 -90 c17 -17 15 -73 -3 -88 -8 -6
-23 -9 -35 -5 -36 11 -23 105 15 105 6 0 16 -5 23 -12z"/>
<path d="M1010 1332 c-40 -13 -50 -34 -50 -104 0 -59 2 -68 18 -68 15 0 18 6
14 30 -6 44 6 97 25 104 29 11 43 -13 43 -75 0 -52 2 -59 20 -59 18 0 20 7 20
59 0 62 14 86 44 75 12 -5 16 -20 16 -70 0 -57 2 -64 20 -64 18 0 20 7 20 63
0 42 -5 70 -16 86 -15 21 -23 23 -68 18 -28 -2 -60 -1 -71 3 -11 4 -27 5 -35
2z"/>
<path d="M2100 1328 c-50 -27 -63 -106 -24 -149 17 -19 75 -26 109 -13 26 10
48 62 41 99 -11 58 -75 89 -126 63z m69 -42 c17 -20 10 -77 -11 -90 -26 -16
-52 4 -56 43 -4 36 12 61 38 61 10 0 23 -6 29 -14z"/>
<path d="M1246 1311 c-29 -32 -32 -91 -6 -123 17 -22 30 -28 61 -28 44 0 79
14 79 32 0 7 -14 8 -41 4 -26 -4 -46 -2 -55 5 -26 21 -14 29 46 29 54 0 60 2
60 21 0 23 -18 60 -34 71 -23 16 -93 8 -110 -11z m92 -33 c3 -15 -4 -18 -32
-18 -39 0 -39 0 -30 25 9 22 58 16 62 -7z"/>
<path d="M1447 1318 c-23 -18 -37 -61 -37 -114 0 -40 2 -44 25 -44 23 0 24 4
27 63 3 56 5 62 26 65 31 5 31 42 -1 42 -13 0 -31 -6 -40 -12z"/>
<path d="M1544 1309 c-12 -14 -19 -36 -19 -64 0 -59 25 -85 81 -85 34 0 47 5
64 28 l22 27 -23 3 c-13 2 -26 -3 -31 -12 -11 -19 -39 -21 -56 -4 -7 7 -12 26
-12 43 0 17 5 36 12 43 17 17 47 15 54 -3 6 -15 54 -22 54 -7 0 4 -7 18 -16
30 -21 31 -102 32 -130 1z"/>
<path d="M1726 1314 c-9 -8 -16 -20 -16 -25 0 -12 37 -12 45 1 3 6 17 10 31
10 19 0 25 -5 22 -17 -2 -13 -14 -19 -41 -21 -48 -4 -76 -40 -59 -77 10 -22
18 -25 60 -25 70 0 82 13 83 89 1 44 -2 66 -12 72 -23 15 -96 10 -113 -7z m82
-96 c-4 -31 -58 -40 -58 -9 0 18 14 27 48 30 8 1 12 -8 10 -21z"/>
<path d="M1318 1119 c-15 -8 -18 -26 -18 -114 0 -98 1 -105 20 -105 19 0 20 7
20 115 0 63 -1 115 -2 115 -2 0 -11 -5 -20 -11z"/>
<path d="M1380 1105 c0 -18 5 -25 20 -25 15 0 20 7 20 25 0 18 -5 25 -20 25
-15 0 -20 -7 -20 -25z"/>
<path d="M1380 985 c0 -78 2 -85 20 -85 18 0 20 7 20 85 0 78 -2 85 -20 85
-18 0 -20 -7 -20 -85z"/>
<path d="M1440 1068 c0 -2 13 -39 29 -83 24 -68 32 -80 53 -83 22 -3 27 4 51
75 33 94 33 95 6 91 -16 -2 -26 -16 -39 -58 -16 -52 -18 -54 -27 -30 -6 14
-14 40 -18 58 -5 25 -12 32 -31 32 -13 0 -24 -1 -24 -2z"/>
<path d="M1635 1045 c-21 -20 -25 -34 -25 -85 0 -53 2 -60 20 -60 17 0 20 7
20 53 0 55 12 77 42 77 11 0 18 7 18 20 0 29 -45 26 -75 -5z"/>
<path d="M1741 1051 c-44 -44 -33 -123 23 -149 23 -12 34 -12 64 0 57 22 53
39 -9 36 -44 -3 -54 0 -57 15 -3 15 5 17 57 17 59 0 61 1 61 25 0 62 -95 100
-139 56z m85 -28 c17 -17 16 -18 -20 -21 -45 -4 -54 2 -36 23 16 20 35 19 56
-2z"/>
</g>
</svg>
