<?xml version="1.0" standalone="no"?>
<!DOCTYPE svg PUBLIC "-//W3C//DTD SVG 20010904//EN"
 "http://www.w3.org/TR/2001/REC-SVG-20010904/DTD/svg10.dtd">
<svg version="1.0" xmlns="http://www.w3.org/2000/svg"
 width="900.000000pt" height="900.000000pt" viewBox="0 0 900.000000 900.000000"
 preserveAspectRatio="xMidYMid meet">

<g transform="translate(0.000000,900.000000) scale(0.100000,-0.100000)"
fill="#000000" stroke="none">
<path d="M4310 7718 c-36 -5 -112 -25 -170 -44 -463 -154 -790 -649 -915
-1385 -20 -118 -45 -351 -45 -415 0 -11 -134 -14 -747 -16 l-748 -3 -57 -27
c-67 -31 -111 -85 -135 -167 -15 -55 -15 -107 2 -341 3 -36 16 -218 30 -405
14 -187 27 -365 29 -395 3 -30 8 -95 11 -145 3 -49 19 -270 35 -490 16 -220
32 -433 35 -472 3 -40 7 -106 10 -145 3 -40 19 -255 35 -478 17 -223 32 -441
35 -485 5 -70 20 -280 41 -563 18 -251 103 -462 239 -597 76 -75 153 -121 258
-154 l82 -26 2120 -3 c2365 -3 2204 -7 2360 67 182 86 298 229 375 459 39 118
55 243 85 672 14 201 39 545 55 765 42 567 99 1346 105 1440 3 44 17 224 30
400 47 620 57 791 51 844 -9 74 -42 145 -87 185 -73 67 -60 66 -879 66 l-737
0 -7 112 c-9 144 -48 383 -86 525 -185 697 -558 1135 -1037 1218 -93 16 -270
18 -373 3z m356 -343 c79 -18 190 -73 266 -131 265 -204 450 -641 524 -1234 8
-63 14 -122 14 -132 0 -17 -45 -18 -969 -18 -534 0 -972 3 -974 8 -8 15 14
230 38 372 116 684 411 1088 840 1149 76 10 180 5 261 -14z m72 -2346 c174
-21 377 -89 512 -170 106 -64 130 -91 130 -147 0 -45 -55 -102 -97 -102 -16 0
-77 25 -134 55 -372 194 -779 220 -1023 65 -187 -119 -300 -336 -267 -516 33
-181 180 -334 436 -455 58 -27 211 -85 340 -129 466 -158 673 -280 816 -484
152 -216 170 -539 43 -795 -84 -170 -246 -306 -451 -381 -355 -128 -795 -94
-1178 90 -199 97 -329 194 -341 256 -12 66 58 134 122 118 15 -4 61 -30 103
-59 266 -183 656 -292 919 -257 351 47 587 206 656 441 23 78 21 213 -4 293
-69 225 -318 412 -720 543 -364 118 -466 161 -618 262 -158 105 -282 254 -333
403 -34 99 -38 270 -10 375 43 158 155 322 284 419 217 163 473 218 815 175z"/>
</g>
</svg>
